<?xml version="1.0" encoding="UTF-8" standalone="no"?>
<!DOCTYPE svg PUBLIC "-//W3C//DTD SVG 1.1//EN"
 "http://www.w3.org/Graphics/SVG/1.1/DTD/svg11.dtd">
<!-- Generated by graphviz version 2.40.1 (20161225.0304)
 -->
<!-- Title: CFG for &#39;foo&#39; function Pages: 1 -->
<svg width="776pt" height="521pt"
 viewBox="0.00 0.00 775.50 521.00" xmlns="http://www.w3.org/2000/svg" xmlns:xlink="http://www.w3.org/1999/xlink">
<g id="graph0" class="graph" transform="scale(1 1) rotate(0) translate(4 517)">
<title>CFG for &#39;foo&#39; function</title>
<polygon fill="#ffffff" stroke="transparent" points="-4,4 -4,-517 771.5,-517 771.5,4 -4,4"/>
<text text-anchor="middle" x="383.75" y="-7.8" font-family="Times,serif" font-size="14.00" fill="#000000">CFG for &#39;foo&#39; function</text>
<!-- Node0x55575b055500 -->
<g id="node1" class="node">
<title>Node0x55575b055500</title>
<polygon fill="#b9d0f9" fill-opacity="0.439216" stroke="#3d50c3" points="514,-474.5 514,-512.5 651,-512.5 651,-474.5 514,-474.5"/>
<text text-anchor="start" x="522" y="-497.3" font-family="Times,serif" font-size="14.00" fill="#000000">entry:</text>
<text text-anchor="start" x="522" y="-482.3" font-family="Times,serif" font-size="14.00" fill="#000000"> br label %while.cond</text>
</g>
<!-- Node0x55575b0555b0 -->
<g id="node2" class="node">
<title>Node0x55575b0555b0</title>
<polygon fill="#b70d28" fill-opacity="0.439216" stroke="#b70d28" points="397.5,-331.5 397.5,-437.5 767.5,-437.5 767.5,-331.5 397.5,-331.5"/>
<text text-anchor="start" x="405.5" y="-422.3" font-family="Times,serif" font-size="14.00" fill="#000000">while.cond: </text>
<text text-anchor="start" x="405.5" y="-407.3" font-family="Times,serif" font-size="14.00" fill="#000000"> %n2.addr.0 = phi i32 [ %n2, %entry ], [ %n2.addr.1, %if.end ]</text>
<text text-anchor="start" x="405.5" y="-392.3" font-family="Times,serif" font-size="14.00" fill="#000000"> %n1.addr.0 = phi i32 [ %n1, %entry ], [ %n1.addr.1, %if.end ]</text>
<text text-anchor="start" x="405.5" y="-377.3" font-family="Times,serif" font-size="14.00" fill="#000000"> %cmp = icmp ne i32 %n1.addr.0, %n2.addr.0</text>
<text text-anchor="start" x="405.5" y="-362.3" font-family="Times,serif" font-size="14.00" fill="#000000"> br i1 %cmp, label %while.body, label %while.end</text>
<polyline fill="none" stroke="#b70d28" points="397.5,-354.5 767.5,-354.5 "/>
<text text-anchor="middle" x="490" y="-339.3" font-family="Times,serif" font-size="14.00" fill="#000000">T</text>
<polyline fill="none" stroke="#b70d28" points="582.5,-331.5 582.5,-354.5 "/>
<text text-anchor="middle" x="675" y="-339.3" font-family="Times,serif" font-size="14.00" fill="#000000">F</text>
</g>
<!-- Node0x55575b055500&#45;&gt;Node0x55575b0555b0 -->
<g id="edge1" class="edge">
<title>Node0x55575b055500&#45;&gt;Node0x55575b0555b0</title>
<path fill="none" stroke="#000000" d="M582.5,-474.2639C582.5,-466.6434 582.5,-457.4109 582.5,-447.8036"/>
<polygon fill="#000000" stroke="#000000" points="586.0001,-447.7078 582.5,-437.7078 579.0001,-447.7078 586.0001,-447.7078"/>
</g>
<!-- Node0x55575b055ae0 -->
<g id="node3" class="node">
<title>Node0x55575b055ae0</title>
<polygon fill="#bb1b2c" fill-opacity="0.439216" stroke="#b70d28" points="213.5,-218.5 213.5,-294.5 499.5,-294.5 499.5,-218.5 213.5,-218.5"/>
<text text-anchor="start" x="221.5" y="-279.3" font-family="Times,serif" font-size="14.00" fill="#000000">while.body: </text>
<text text-anchor="start" x="221.5" y="-264.3" font-family="Times,serif" font-size="14.00" fill="#000000"> %cmp1 = icmp sgt i32 %n1.addr.0, %n2.addr.0</text>
<text text-anchor="start" x="221.5" y="-249.3" font-family="Times,serif" font-size="14.00" fill="#000000"> br i1 %cmp1, label %if.then, label %if.else</text>
<polyline fill="none" stroke="#b70d28" points="213.5,-241.5 499.5,-241.5 "/>
<text text-anchor="middle" x="285" y="-226.3" font-family="Times,serif" font-size="14.00" fill="#000000">T</text>
<polyline fill="none" stroke="#b70d28" points="356.5,-218.5 356.5,-241.5 "/>
<text text-anchor="middle" x="428" y="-226.3" font-family="Times,serif" font-size="14.00" fill="#000000">F</text>
</g>
<!-- Node0x55575b0555b0&#45;&gt;Node0x55575b055ae0 -->
<g id="edge2" class="edge">
<title>Node0x55575b0555b0:s0&#45;&gt;Node0x55575b055ae0</title>
<path fill="none" stroke="#000000" d="M397.5,-342.5C378.0439,-342.5 367.8112,-324.3435 362.4335,-304.7156"/>
<polygon fill="#000000" stroke="#000000" points="365.7826,-303.6653 360.1026,-294.7217 358.9656,-305.2553 365.7826,-303.6653"/>
</g>
<!-- Node0x55575b055bc0 -->
<g id="node4" class="node">
<title>Node0x55575b055bc0</title>
<polygon fill="#b9d0f9" fill-opacity="0.439216" stroke="#3d50c3" points="637,-237.5 637,-275.5 714,-275.5 714,-237.5 637,-237.5"/>
<text text-anchor="start" x="645" y="-260.3" font-family="Times,serif" font-size="14.00" fill="#000000">while.end: </text>
<text text-anchor="start" x="645" y="-245.3" font-family="Times,serif" font-size="14.00" fill="#000000"> ret void</text>
</g>
<!-- Node0x55575b0555b0&#45;&gt;Node0x55575b055bc0 -->
<g id="edge3" class="edge">
<title>Node0x55575b0555b0:s1&#45;&gt;Node0x55575b055bc0</title>
<path fill="none" stroke="#000000" d="M675.5,-331.5C675.5,-316.4996 675.5,-299.8116 675.5,-285.9926"/>
<polygon fill="#000000" stroke="#000000" points="679.0001,-285.6122 675.5,-275.6122 672.0001,-285.6123 679.0001,-285.6122"/>
</g>
<!-- Node0x55575b055e00 -->
<g id="node5" class="node">
<title>Node0x55575b055e00</title>
<polygon fill="#e16751" fill-opacity="0.439216" stroke="#3d50c3" points="0,-128.5 0,-181.5 271,-181.5 271,-128.5 0,-128.5"/>
<text text-anchor="start" x="8" y="-166.3" font-family="Times,serif" font-size="14.00" fill="#000000">if.then: </text>
<text text-anchor="start" x="8" y="-151.3" font-family="Times,serif" font-size="14.00" fill="#000000"> %sub = sub nsw i32 %n1.addr.0, %n2.addr.0</text>
<text text-anchor="start" x="8" y="-136.3" font-family="Times,serif" font-size="14.00" fill="#000000"> br label %if.end</text>
</g>
<!-- Node0x55575b055ae0&#45;&gt;Node0x55575b055e00 -->
<g id="edge4" class="edge">
<title>Node0x55575b055ae0:s0&#45;&gt;Node0x55575b055e00</title>
<path fill="none" stroke="#000000" d="M213.5,-229.5C188.7055,-229.5 168.6934,-209.5706 155.1494,-190.3273"/>
<polygon fill="#000000" stroke="#000000" points="158.006,-188.3019 149.567,-181.8962 152.1694,-192.1665 158.006,-188.3019"/>
</g>
<!-- Node0x55575b055e70 -->
<g id="node6" class="node">
<title>Node0x55575b055e70</title>
<polygon fill="#e16751" fill-opacity="0.439216" stroke="#3d50c3" points="289.5,-128.5 289.5,-181.5 567.5,-181.5 567.5,-128.5 289.5,-128.5"/>
<text text-anchor="start" x="297.5" y="-166.3" font-family="Times,serif" font-size="14.00" fill="#000000">if.else: </text>
<text text-anchor="start" x="297.5" y="-151.3" font-family="Times,serif" font-size="14.00" fill="#000000"> %sub2 = sub nsw i32 %n2.addr.0, %n1.addr.0</text>
<text text-anchor="start" x="297.5" y="-136.3" font-family="Times,serif" font-size="14.00" fill="#000000"> br label %if.end</text>
</g>
<!-- Node0x55575b055ae0&#45;&gt;Node0x55575b055e70 -->
<g id="edge5" class="edge">
<title>Node0x55575b055ae0:s1&#45;&gt;Node0x55575b055e70</title>
<path fill="none" stroke="#000000" d="M428.5,-218.5C428.5,-209.7839 428.5,-200.3949 428.5,-191.5799"/>
<polygon fill="#000000" stroke="#000000" points="432.0001,-191.5702 428.5,-181.5702 425.0001,-191.5703 432.0001,-191.5702"/>
</g>
<!-- Node0x55575b055700 -->
<g id="node7" class="node">
<title>Node0x55575b055700</title>
<polygon fill="#bb1b2c" fill-opacity="0.439216" stroke="#b70d28" points="233,-23.5 233,-91.5 624,-91.5 624,-23.5 233,-23.5"/>
<text text-anchor="start" x="241" y="-76.3" font-family="Times,serif" font-size="14.00" fill="#000000">if.end: </text>
<text text-anchor="start" x="241" y="-61.3" font-family="Times,serif" font-size="14.00" fill="#000000"> %n2.addr.1 = phi i32 [ %n2.addr.0, %if.then ], [ %sub2, %if.else ]</text>
<text text-anchor="start" x="241" y="-46.3" font-family="Times,serif" font-size="14.00" fill="#000000"> %n1.addr.1 = phi i32 [ %sub, %if.then ], [ %n1.addr.0, %if.else ]</text>
<text text-anchor="start" x="241" y="-31.3" font-family="Times,serif" font-size="14.00" fill="#000000"> br label %while.cond, !llvm.loop !4</text>
</g>
<!-- Node0x55575b055e00&#45;&gt;Node0x55575b055700 -->
<g id="edge6" class="edge">
<title>Node0x55575b055e00&#45;&gt;Node0x55575b055700</title>
<path fill="none" stroke="#000000" d="M215.1765,-128.4865C246.3318,-118.1191 282.6187,-106.0441 316.3346,-94.8247"/>
<polygon fill="#000000" stroke="#000000" points="317.8532,-98.0081 326.2366,-91.5296 315.643,-91.3662 317.8532,-98.0081"/>
</g>
<!-- Node0x55575b055e70&#45;&gt;Node0x55575b055700 -->
<g id="edge7" class="edge">
<title>Node0x55575b055e70&#45;&gt;Node0x55575b055700</title>
<path fill="none" stroke="#000000" d="M428.5,-128.3577C428.5,-120.1646 428.5,-110.9145 428.5,-101.8674"/>
<polygon fill="#000000" stroke="#000000" points="432.0001,-101.8063 428.5,-91.8063 425.0001,-101.8063 432.0001,-101.8063"/>
</g>
<!-- Node0x55575b055700&#45;&gt;Node0x55575b0555b0 -->
<g id="edge8" class="edge">
<title>Node0x55575b055700&#45;&gt;Node0x55575b0555b0</title>
<path fill="none" stroke="#000000" d="M537.3999,-91.6327C552.8381,-101.0397 566.7517,-112.9513 576.5,-128 613.6044,-185.2789 608.4446,-265.8722 598.3197,-321.3562"/>
<polygon fill="#000000" stroke="#000000" points="594.8373,-320.9309 596.3804,-331.4127 601.7106,-322.2564 594.8373,-320.9309"/>
</g>
</g>
</svg>
