<?xml version="1.0" encoding="UTF-8" standalone="no"?>
<!DOCTYPE svg PUBLIC "-//W3C//DTD SVG 1.1//EN"
 "http://www.w3.org/Graphics/SVG/1.1/DTD/svg11.dtd">
<!-- Generated by graphviz version 2.40.1 (20161225.0304)
 -->
<!-- Title: CFG for &#39;main&#39; function Pages: 1 -->
<svg width="464pt" height="821pt"
 viewBox="0.00 0.00 464.00 821.00" xmlns="http://www.w3.org/2000/svg" xmlns:xlink="http://www.w3.org/1999/xlink">
<g id="graph0" class="graph" transform="scale(1 1) rotate(0) translate(4 817)">
<title>CFG for &#39;main&#39; function</title>
<polygon fill="#ffffff" stroke="transparent" points="-4,4 -4,-817 460,-817 460,4 -4,4"/>
<text text-anchor="middle" x="228" y="-7.8" font-family="Times,serif" font-size="14.00" fill="#000000">CFG for &#39;main&#39; function</text>
<!-- Node0x563e3ebaf1b0 -->
<g id="node1" class="node">
<title>Node0x563e3ebaf1b0</title>
<polygon fill="#b70d28" fill-opacity="0.439216" stroke="#b70d28" points="0,-601.5 0,-812.5 456,-812.5 456,-601.5 0,-601.5"/>
<text text-anchor="start" x="8" y="-797.3" font-family="Times,serif" font-size="14.00" fill="#000000">entry:</text>
<text text-anchor="start" x="8" y="-782.3" font-family="Times,serif" font-size="14.00" fill="#000000"> %n1 = alloca i32, align 4</text>
<text text-anchor="start" x="8" y="-767.3" font-family="Times,serif" font-size="14.00" fill="#000000"> %n2 = alloca i32, align 4</text>
<text text-anchor="start" x="8" y="-752.3" font-family="Times,serif" font-size="14.00" fill="#000000"> %0 = bitcast i32* %n1 to i8*</text>
<text text-anchor="start" x="8" y="-737.3" font-family="Times,serif" font-size="14.00" fill="#000000"> call void @klee_make_symbolic(i8* %0, i64 4, i8* getelementptr inbounds ([3</text>
<text text-anchor="start" x="8" y="-722.3" font-family="Times,serif" font-size="14.00" fill="#000000">... x i8], [3 x i8]* @.str, i64 0, i64 0))</text>
<text text-anchor="start" x="8" y="-707.3" font-family="Times,serif" font-size="14.00" fill="#000000"> %1 = bitcast i32* %n2 to i8*</text>
<text text-anchor="start" x="8" y="-692.3" font-family="Times,serif" font-size="14.00" fill="#000000"> call void @klee_make_symbolic(i8* %1, i64 4, i8* getelementptr inbounds ([3</text>
<text text-anchor="start" x="8" y="-677.3" font-family="Times,serif" font-size="14.00" fill="#000000">... x i8], [3 x i8]* @.str.1, i64 0, i64 0))</text>
<text text-anchor="start" x="8" y="-662.3" font-family="Times,serif" font-size="14.00" fill="#000000"> %2 = load i32, i32* %n1, align 4</text>
<text text-anchor="start" x="8" y="-647.3" font-family="Times,serif" font-size="14.00" fill="#000000"> %cmp = icmp sgt i32 %2, 0</text>
<text text-anchor="start" x="8" y="-632.3" font-family="Times,serif" font-size="14.00" fill="#000000"> br i1 %cmp, label %land.rhs, label %land.end</text>
<polyline fill="none" stroke="#b70d28" points="0,-624.5 456,-624.5 "/>
<text text-anchor="middle" x="114" y="-609.3" font-family="Times,serif" font-size="14.00" fill="#000000">T</text>
<polyline fill="none" stroke="#b70d28" points="228,-601.5 228,-624.5 "/>
<text text-anchor="middle" x="342" y="-609.3" font-family="Times,serif" font-size="14.00" fill="#000000">F</text>
</g>
<!-- Node0x563e3ebb01c0 -->
<g id="node2" class="node">
<title>Node0x563e3ebb01c0</title>
<polygon fill="#e8765c" fill-opacity="0.439216" stroke="#b70d28" points="59.5,-496.5 59.5,-564.5 264.5,-564.5 264.5,-496.5 59.5,-496.5"/>
<text text-anchor="start" x="67.5" y="-549.3" font-family="Times,serif" font-size="14.00" fill="#000000">land.rhs: </text>
<text text-anchor="start" x="67.5" y="-534.3" font-family="Times,serif" font-size="14.00" fill="#000000"> %3 = load i32, i32* %n1, align 4</text>
<text text-anchor="start" x="67.5" y="-519.3" font-family="Times,serif" font-size="14.00" fill="#000000"> %cmp1 = icmp sle i32 %3, 10</text>
<text text-anchor="start" x="67.5" y="-504.3" font-family="Times,serif" font-size="14.00" fill="#000000"> br label %land.end</text>
</g>
<!-- Node0x563e3ebaf1b0&#45;&gt;Node0x563e3ebb01c0 -->
<g id="edge1" class="edge">
<title>Node0x563e3ebaf1b0:s0&#45;&gt;Node0x563e3ebb01c0</title>
<path fill="none" stroke="#000000" d="M114,-601C114,-591.2192 117.1957,-581.7921 121.938,-573.1873"/>
<polygon fill="#000000" stroke="#000000" points="125.0158,-574.8674 127.3707,-564.5376 119.088,-571.1443 125.0158,-574.8674"/>
</g>
<!-- Node0x563e3ebb0240 -->
<g id="node3" class="node">
<title>Node0x563e3ebb0240</title>
<polygon fill="#b70d28" fill-opacity="0.439216" stroke="#b70d28" points="84.5,-308.5 84.5,-459.5 393.5,-459.5 393.5,-308.5 84.5,-308.5"/>
<text text-anchor="start" x="92.5" y="-444.3" font-family="Times,serif" font-size="14.00" fill="#000000">land.end: </text>
<text text-anchor="start" x="92.5" y="-429.3" font-family="Times,serif" font-size="14.00" fill="#000000"> %4 = phi i1 [ false, %entry ], [ %cmp1, %land.rhs ]</text>
<text text-anchor="start" x="92.5" y="-414.3" font-family="Times,serif" font-size="14.00" fill="#000000"> %land.ext = zext i1 %4 to i32</text>
<text text-anchor="start" x="92.5" y="-399.3" font-family="Times,serif" font-size="14.00" fill="#000000"> %conv = sext i32 %land.ext to i64</text>
<text text-anchor="start" x="92.5" y="-384.3" font-family="Times,serif" font-size="14.00" fill="#000000"> call void @klee_assume(i64 %conv)</text>
<text text-anchor="start" x="92.5" y="-369.3" font-family="Times,serif" font-size="14.00" fill="#000000"> %5 = load i32, i32* %n2, align 4</text>
<text text-anchor="start" x="92.5" y="-354.3" font-family="Times,serif" font-size="14.00" fill="#000000"> %cmp2 = icmp sgt i32 %5, 0</text>
<text text-anchor="start" x="92.5" y="-339.3" font-family="Times,serif" font-size="14.00" fill="#000000"> br i1 %cmp2, label %land.rhs4, label %land.end7</text>
<polyline fill="none" stroke="#b70d28" points="84.5,-331.5 393.5,-331.5 "/>
<text text-anchor="middle" x="162" y="-316.3" font-family="Times,serif" font-size="14.00" fill="#000000">T</text>
<polyline fill="none" stroke="#b70d28" points="239.5,-308.5 239.5,-331.5 "/>
<text text-anchor="middle" x="316.5" y="-316.3" font-family="Times,serif" font-size="14.00" fill="#000000">F</text>
</g>
<!-- Node0x563e3ebaf1b0&#45;&gt;Node0x563e3ebb0240 -->
<g id="edge2" class="edge">
<title>Node0x563e3ebaf1b0:s1&#45;&gt;Node0x563e3ebb0240</title>
<path fill="none" stroke="#000000" d="M342,-601C342,-554.4785 322.4409,-507.2953 300.3692,-468.8611"/>
<polygon fill="#000000" stroke="#000000" points="303.1153,-466.6273 295.0212,-459.791 297.0854,-470.1828 303.1153,-466.6273"/>
</g>
<!-- Node0x563e3ebb01c0&#45;&gt;Node0x563e3ebb0240 -->
<g id="edge3" class="edge">
<title>Node0x563e3ebb01c0&#45;&gt;Node0x563e3ebb0240</title>
<path fill="none" stroke="#000000" d="M180.0531,-496.1523C184.4773,-487.7347 189.4091,-478.3515 194.4838,-468.6964"/>
<polygon fill="#000000" stroke="#000000" points="197.6196,-470.253 199.174,-459.7728 191.4234,-466.9962 197.6196,-470.253"/>
</g>
<!-- Node0x563e3ebb0990 -->
<g id="node4" class="node">
<title>Node0x563e3ebb0990</title>
<polygon fill="#e8765c" fill-opacity="0.439216" stroke="#b70d28" points="71.5,-203.5 71.5,-271.5 276.5,-271.5 276.5,-203.5 71.5,-203.5"/>
<text text-anchor="start" x="79.5" y="-256.3" font-family="Times,serif" font-size="14.00" fill="#000000">land.rhs4: </text>
<text text-anchor="start" x="79.5" y="-241.3" font-family="Times,serif" font-size="14.00" fill="#000000"> %6 = load i32, i32* %n2, align 4</text>
<text text-anchor="start" x="79.5" y="-226.3" font-family="Times,serif" font-size="14.00" fill="#000000"> %cmp5 = icmp sle i32 %6, 10</text>
<text text-anchor="start" x="79.5" y="-211.3" font-family="Times,serif" font-size="14.00" fill="#000000"> br label %land.end7</text>
</g>
<!-- Node0x563e3ebb0240&#45;&gt;Node0x563e3ebb0990 -->
<g id="edge4" class="edge">
<title>Node0x563e3ebb0240:s0&#45;&gt;Node0x563e3ebb0990</title>
<path fill="none" stroke="#000000" d="M162,-308C162,-299.4332 162.8718,-290.3629 164.1454,-281.6827"/>
<polygon fill="#000000" stroke="#000000" points="167.6133,-282.1637 165.7969,-271.7258 160.7077,-281.0183 167.6133,-282.1637"/>
</g>
<!-- Node0x563e3ebb0a10 -->
<g id="node5" class="node">
<title>Node0x563e3ebb0a10</title>
<polygon fill="#b70d28" fill-opacity="0.439216" stroke="#b70d28" points="71.5,-23.5 71.5,-166.5 406.5,-166.5 406.5,-23.5 71.5,-23.5"/>
<text text-anchor="start" x="79.5" y="-151.3" font-family="Times,serif" font-size="14.00" fill="#000000">land.end7: </text>
<text text-anchor="start" x="79.5" y="-136.3" font-family="Times,serif" font-size="14.00" fill="#000000"> %7 = phi i1 [ false, %land.end ], [ %cmp5, %land.rhs4 ]</text>
<text text-anchor="start" x="79.5" y="-121.3" font-family="Times,serif" font-size="14.00" fill="#000000"> %land.ext8 = zext i1 %7 to i32</text>
<text text-anchor="start" x="79.5" y="-106.3" font-family="Times,serif" font-size="14.00" fill="#000000"> %conv9 = sext i32 %land.ext8 to i64</text>
<text text-anchor="start" x="79.5" y="-91.3" font-family="Times,serif" font-size="14.00" fill="#000000"> call void @klee_assume(i64 %conv9)</text>
<text text-anchor="start" x="79.5" y="-76.3" font-family="Times,serif" font-size="14.00" fill="#000000"> %8 = load i32, i32* %n1, align 4</text>
<text text-anchor="start" x="79.5" y="-61.3" font-family="Times,serif" font-size="14.00" fill="#000000"> %9 = load i32, i32* %n2, align 4</text>
<text text-anchor="start" x="79.5" y="-46.3" font-family="Times,serif" font-size="14.00" fill="#000000"> call void @foo(i32 %8, i32 %9)</text>
<text text-anchor="start" x="79.5" y="-31.3" font-family="Times,serif" font-size="14.00" fill="#000000"> ret i32 0</text>
</g>
<!-- Node0x563e3ebb0240&#45;&gt;Node0x563e3ebb0a10 -->
<g id="edge5" class="edge">
<title>Node0x563e3ebb0240:s1&#45;&gt;Node0x563e3ebb0a10</title>
<path fill="none" stroke="#000000" d="M317,-308C317,-262.4277 301.0614,-214.5317 283.5939,-175.7253"/>
<polygon fill="#000000" stroke="#000000" points="286.7387,-174.1867 279.3708,-166.5732 280.3827,-177.1196 286.7387,-174.1867"/>
</g>
<!-- Node0x563e3ebb0990&#45;&gt;Node0x563e3ebb0a10 -->
<g id="edge6" class="edge">
<title>Node0x563e3ebb0990&#45;&gt;Node0x563e3ebb0a10</title>
<path fill="none" stroke="#000000" d="M189.5691,-203.3677C193.4115,-194.9441 197.6919,-185.5601 202.0819,-175.9359"/>
<polygon fill="#000000" stroke="#000000" points="205.3479,-177.2092 206.3137,-166.6585 198.9792,-174.3042 205.3479,-177.2092"/>
</g>
</g>
</svg>
